<?xml version="1.0" encoding="utf-8"?>
<!-- Generator: Adobe Illustrator 24.0.1, SVG Export Plug-In . SVG Version: 6.00 Build 0)  -->
<svg version="1.1" id="Layer_1" xmlns="http://www.w3.org/2000/svg" xmlns:xlink="http://www.w3.org/1999/xlink" x="0px" y="0px"
	 viewBox="0 0 475 67" style="enable-background:new 0 0 475 67;" xml:space="preserve">
<style type="text/css">
	.st0{fill:#184797;}
</style>
<path class="st0" d="M32.3,0.2v62.3L46.5,67V14.8c0-2.5,1.1-4.1,2.9-3.5c2.3,0.6,2.8,2.9,2.8,5.3v20.9c8.8,4.2,15.7,0,15.7-11.2
	c0-11.5-4.1-16.6-16-20.7C45.4,3.4,38.9,1.6,32.3,0.2"/>
<path class="st0" d="M49.1,57.9l22.6-8.1c2.6-0.9,3-2.2,0.9-2.9c-2.8-0.6-5.7-0.5-8.5,0.4l-15.1,5.3v-8.5l0.9-0.3
	c3.4-1.1,6.9-1.8,10.5-2.2C67.1,41,73.8,41.8,80,44c6.7,2.1,7.4,5.2,5.7,7.3C84,53.5,79.9,55,79.9,55L49.1,66.1V57.9"/>
<path class="st0" d="M6.5,57c-6.8-1.9-8-5.9-4.9-8.2c2.4-1.6,5-2.8,7.8-3.7l20.2-7.2v8.2l-14.5,5.2c-2.6,0.9-3,2.2-0.9,2.9
	c2.8,0.7,5.7,0.5,8.4-0.4l7-2.5v7.4l-1.4,0.2C21,60,13.5,59.4,6.5,57"/>
<path class="st0" d="M81.3,66.9c1.8,0,3.3-1.5,3.3-3.3c0-0.9-0.4-1.7-1-2.3c-0.6-0.6-1.4-1-2.3-1c-1.8,0-3.3,1.5-3.3,3.3
	c0,0,0,0,0,0c0,0.9,0.4,1.7,1,2.3C79.6,66.5,80.4,66.9,81.3,66.9 M78.5,63.6c0-0.7,0.3-1.5,0.8-2c0.5-0.5,1.3-0.8,2-0.8
	c0.7,0,1.4,0.3,1.9,0.8c1.1,1.1,1.1,2.8,0,3.9c-0.5,0.5-1.2,0.8-1.9,0.8c-0.7,0-1.5-0.3-2-0.8C78.8,65,78.5,64.3,78.5,63.6"/>
<path class="st0" d="M82.9,65.1c0,0-0.1-0.1-0.1-0.2c0-0.1,0-0.2,0-0.3v-0.4c0-0.2,0-0.3-0.1-0.5c-0.1-0.1-0.1-0.1-0.2-0.2
	c0.1-0.1,0.2-0.2,0.3-0.3c0.1-0.2,0.1-0.4,0.1-0.6c0-0.4-0.2-0.8-0.6-0.9c-0.2-0.1-0.5-0.1-0.7-0.1h-1.8v3.7h0.7v-1.5h1
	c0.1,0,0.3,0,0.4,0c0.1,0.1,0.2,0.2,0.2,0.4v0.6c0,0.1,0,0.2,0,0.3c0,0,0,0.1,0,0.1h0.7L82.9,65.1L82.9,65.1 M82.2,62.8
	c0,0.2,0,0.3-0.2,0.4c-0.1,0.1-0.3,0.1-0.5,0.1h-1v-1h1.1c0.1,0,0.2,0,0.3,0.1C82.1,62.4,82.2,62.6,82.2,62.8"/>
<path class="st0" d="M114.3,18.9h13.1c6.8,0,12.6,2.6,12.6,10.8S134.2,41,127.4,41h-6v12.7h-7.1V18.9 M121.4,35.2h5.2
	c3.6,0,6.2-1.3,6.2-5.3s-2.6-5.3-6.5-5.3h-4.9V35.2z"/>
<rect x="143" y="17.8" class="st0" width="7" height="35.9"/>
<path class="st0" d="M169.6,36.9c0-2.7-1.8-4.3-5.7-4.3c-2.3,0-4.5,0.5-6.6,1.3l-1.3-5c2.7-0.9,5.5-1.5,8.4-1.5
	c8.6,0,12.1,3.6,12.1,9.9v10.6c0,2,0.1,3.9,0.4,5.9h-6.2c-0.3-1-0.5-2.1-0.5-3.2h-0.1c-1.3,2.3-4,3.8-7.5,3.8c-4.5,0-9.3-2-9.3-8
	c0-7.6,7.4-8.8,16.2-8.8V36.9 M168.7,41.8c-4.7,0-8.6,0.7-8.6,4.2c0,2.2,1.5,3.5,3.8,3.5c4,0,5.7-3,5.7-5.9v-1.8L168.7,41.8z"/>
<polyline class="st0" points="191.8,45.2 191.9,45.2 198.1,28 205.4,28 191.4,63.2 184.1,63.2 188.3,53.2 178.1,28 185.6,28 
	191.8,45.2 "/>
<path class="st0" d="M227.2,25.2c-2.4-0.8-4.9-1.3-7.5-1.3c-2.8,0-5.6,0.8-5.6,3.7c0,2.4,2,3.7,6.6,5.5c5.8,2.4,9.7,4.7,9.7,10.8
	c0,7-6,10.2-12.9,10.2c-3.6,0-7.2-0.6-10.6-1.8l1.3-5.8c2.9,1.2,6,1.8,9.1,1.8c3.8,0,6-1.4,6-4s-2.1-3.9-6.8-5.8
	c-5.6-2.2-9.4-5-9.4-10.4c0-7.2,6.3-10.1,12.2-10.1c3.1,0,6.2,0.4,9.1,1.3L227.2,25.2"/>
<path class="st0" d="M230.8,28h4v-6.8h6.9V28h5.3v5.2h-5.4v11.5c0,3.5,0.5,4,2.9,4c0.8,0,1.5-0.1,2.3-0.2v5.2
	c-1.5,0.2-3,0.2-4.5,0.2c-6.4,0-7.7-2.6-7.7-7.5V33.2h-4L230.8,28"/>
<path class="st0" d="M264.2,36.9c0-2.7-1.8-4.3-5.7-4.3c-2.3,0-4.5,0.5-6.6,1.3l-1.3-5c2.7-0.9,5.5-1.5,8.4-1.5
	c8.6,0,12.1,3.6,12.1,9.9v10.6c0,2,0.1,3.9,0.4,5.9h-6.2c-0.3-1-0.5-2.1-0.5-3.2h-0.1c-1.3,2.3-4,3.8-7.5,3.8c-4.5,0-9.3-2-9.3-8
	c0-7.6,7.4-8.8,16.2-8.8V36.9 M263.3,41.8c-4.7,0-8.6,0.7-8.6,4.2c0,2.2,1.5,3.5,3.8,3.5c4,0,5.7-3,5.7-5.9v-1.8L263.3,41.8z"/>
<path class="st0" d="M273,28h4v-6.8h6.9V28h5.4v5.2h-5.4v11.5c0,3.5,0.5,4,2.9,4c0.8,0,1.5-0.1,2.3-0.2v5.2c-1.5,0.2-3,0.2-4.5,0.2
	c-6.4,0-7.7-2.6-7.7-7.5V33.2h-4V28"/>
<path class="st0" d="M291.8,18h6.9v6h-6.9V18z M298.8,28v25.7h-6.9V28L298.8,28z"/>
<path class="st0" d="M315.6,54.2c-8,0-13.1-5.1-13.1-13.5s5.1-13.4,13.1-13.4s13.1,5,13.1,13.4S323.5,54.2,315.6,54.2 M315.6,32.5
	c-4.2,0-6.2,3.4-6.2,8.2c0,5,2,8.3,6.2,8.3c4.2,0,6.2-3.3,6.2-8.3C321.8,36,319.8,32.6,315.6,32.5L315.6,32.5z"/>
<path class="st0" d="M339.2,28v3.5h0.1c1.3-2.6,4.5-4,7.8-4c5.8,0,9.5,3.7,9.5,9.4v17h-6.9V39.3c0-4.2-1-6.7-4.8-6.7
	c-2.7,0-5.6,1.9-5.6,7.2v14h-6.9V28H339.2"/>
<path class="st0" d="M365,46.9h-2V53h-1.7v-6.1h-2v-1.3h5.7V46.9 M373.9,53h-1.6v-5.8l-1.6,5.8H369l-1.7-5.8V53h-1.5v-7.4h2.6
	l1.4,5.5l1.4-5.5h2.7L373.9,53z"/>
<path class="st0" d="M406.6,24.6c-2.6-1.4-5.5-2.2-8.5-2.2c-8.8,0-14,6.5-14,14.9c0,8.1,5.4,14.7,13.9,14.7c2.3,0.1,4.5-0.4,6.5-1.4
	V39.5h-7.6v-3.7h11.9V53c-3.4,1.8-7.2,2.8-11.1,2.7c-10.6,0-18-7.6-18-18.4s6.9-18.5,18.3-18.5c3.4-0.1,6.7,0.6,9.8,2L406.6,24.6"/>
<path class="st0" d="M416,43.1c0.3,5.7,3.8,9.3,9.4,9.3c2.4,0,4.8-0.4,7.1-1.3l0.7,3.2c-2.5,1-5.2,1.4-7.9,1.4
	c-8.8,0-13.4-5.9-13.4-13.8c0-8,4.6-13.9,11.9-13.9c7.4,0,11,5.1,11,12.9v2L416,43.1 M416,39.7h14.9v-0.2c0-5.1-2.9-8.1-7.1-8.1
	C419.1,31.4,416.4,34.8,416,39.7L416,39.7z"/>
<path class="st0" d="M453,37.9c0-4.4-2-6.5-6.4-6.5c-2.3,0-4.6,0.6-6.8,1.6l-1-3.4c2.5-1,5.2-1.5,7.9-1.5c6.5,0,10.5,3,10.5,9.5
	v11.6c0,2,0.2,4,0.5,6H454c-0.3-1.3-0.5-2.7-0.6-4h-0.1c-1.4,2.5-4.2,4.6-8.5,4.6c-4.3,0-8.7-2.3-8.7-8c0-7.6,7.8-9.1,16.9-9.1V37.9
	 M451.8,41.7c-6,0-11.6,1-11.6,5.9c0,2.8,1.5,4.8,4.9,4.8c5.3,0,7.9-4,7.9-8.4v-2.3H451.8z"/>
<path class="st0" d="M474.6,31.6c-0.7-0.1-1.5-0.2-2.2-0.2c-3.5,0-6.3,2.1-6.3,8.2v15.5h-4.3V28.7h4.1v3.6h0.1
	c1.3-2.8,3.5-4.2,6.9-4.2c0.6,0,1.3,0,1.9,0.1L474.6,31.6"/>
</svg>
